<?xml version="1.0" encoding="utf-8"?>
<!-- Generator: Adobe Illustrator 25.1.0, SVG Export Plug-In . SVG Version: 6.00 Build 0)  -->
<svg version="1.1" id="Calque_1" xmlns="http://www.w3.org/2000/svg" xmlns:xlink="http://www.w3.org/1999/xlink" x="0px" y="0px"
	 viewBox="0 0 32 32" style="enable-background:new 0 0 32 32;" xml:space="preserve">
<style type="text/css">
	.st0{fill:#DD881C;}
</style>
<path class="st0" d="M18.6,2.5c0.4-0.4,1-0.4,1.4,0s0.4,1,0,1.4c-3.4,3.4-3.3,7.3-2.8,11.3c3.8,0.4,7.4,0.6,10.6-2.1l-6.4-6.4
	c-0.4-0.4-0.4-1,0-1.4c0.4-0.4,1-0.4,1.4,0l7.1,7.1c0.4,0.4,0.4,1,0,1.4c-4,4-8.3,3.9-12.5,3.5c0.4,4.2,0.5,8.6-3.5,12.6
	c-0.1,0.1-0.2,0.1-0.2,0.2c-0.4,0.4-1,0.4-1.4,0L5.2,23c-0.4-0.4-0.4-1,0-1.4c0.4-0.4,1-0.4,1.4,0l6.4,6.4c3-3.3,2.8-7,2.4-10.9
	c-4.1-0.4-7.9-0.6-11.3,2.8c-0.4,0.4-1,0.4-1.4,0s-0.4-1,0-1.4c4-4,8.3-3.9,12.6-3.5C14.7,10.8,14.6,6.5,18.6,2.5z"/>
</svg>
