<?xml version="1.0" encoding="utf-8"?>
<!-- Generator: Adobe Illustrator 25.1.0, SVG Export Plug-In . SVG Version: 6.00 Build 0)  -->
<svg version="1.1" id="Calque_1" xmlns="http://www.w3.org/2000/svg" xmlns:xlink="http://www.w3.org/1999/xlink" x="0px" y="0px"
	 viewBox="0 0 32 32" style="enable-background:new 0 0 32 32;" xml:space="preserve">
<style type="text/css">
	.st0{fill:#EC8E0E;}
</style>
<path class="st0" d="M3.5,10.4C3.3,9.9,3.4,9.3,3.9,9C4.4,8.8,5,8.9,5.3,9.4c2.4,4.2,6.2,5,10.2,5.7c1.3-3.5,2.4-7,0.7-10.8L8.4,8.8
	C7.9,9.1,7.3,8.9,7,8.4S6.9,7.3,7.4,7L16,2c0.5-0.3,1.1-0.1,1.4,0.4c2.8,4.8,1.6,9,0.1,13c4.2,0.7,8.4,1.8,11.2,6.6
	c0,0.1,0.1,0.2,0.2,0.3c0.3,0.5,0.1,1.1-0.4,1.4l-8.7,5c-0.5,0.3-1.1,0.1-1.4-0.4s-0.1-1.1,0.4-1.4l7.8-4.5
	c-2.4-3.7-6.1-4.5-9.9-5.1c-1.5,3.8-2.6,7.5-0.2,11.7c0.3,0.5,0.1,1.1-0.4,1.4c-0.5,0.3-1.1,0.1-1.4-0.4c-2.8-4.8-1.6-9-0.1-13
	C10.5,16.3,6.3,15.3,3.5,10.4z"/>
</svg>
