<?xml version="1.0" encoding="utf-8"?>
<!-- Generator: Adobe Illustrator 25.1.0, SVG Export Plug-In . SVG Version: 6.00 Build 0)  -->
<svg version="1.1" id="Calque_1" xmlns="http://www.w3.org/2000/svg" xmlns:xlink="http://www.w3.org/1999/xlink" x="0px" y="0px"
	 viewBox="0 0 32 32" style="enable-background:new 0 0 32 32;" xml:space="preserve">
<style type="text/css">
	.st0{fill:#F39316;}
</style>
<path class="st0" d="M5.5,7.3C5.3,6.8,5.6,6.2,6.2,6.1C6.7,6,7.3,6.3,7.4,6.8c1.3,4.7,4.7,6.5,8.4,8.1c2.2-3.1,4.2-6.1,3.5-10.2
	L10.6,7C10,7.1,9.5,6.8,9.3,6.3C9.2,5.8,9.5,5.2,10,5.1l9.7-2.6c0.5-0.1,1.1,0.2,1.2,0.7c1.4,5.4-0.8,9.1-3.3,12.6
	c3.9,1.8,7.7,3.9,9.1,9.3c0,0.1,0,0.2,0.1,0.3c0.1,0.5-0.2,1.1-0.7,1.2l-9.7,2.6c-0.5,0.1-1.1-0.2-1.2-0.7s0.2-1.1,0.7-1.2l8.7-2.3
	c-1.4-4.2-4.7-5.9-8.2-7.5c-2.4,3.3-4.5,6.5-3.2,11.2c0.1,0.5-0.2,1.1-0.7,1.2c-0.5,0.1-1.1-0.2-1.2-0.7c-1.4-5.4,0.8-9.1,3.3-12.6
	C10.7,14.8,6.9,12.7,5.5,7.3z"/>
</svg>
