<?xml version="1.0" encoding="utf-8"?>
<!-- Generator: Adobe Illustrator 25.1.0, SVG Export Plug-In . SVG Version: 6.00 Build 0)  -->
<svg version="1.1" id="Calque_1" xmlns="http://www.w3.org/2000/svg" xmlns:xlink="http://www.w3.org/1999/xlink" x="0px" y="0px"
	 viewBox="0 0 32 32" style="enable-background:new 0 0 32 32;" xml:space="preserve">
<style type="text/css">
	.st0{fill:#F39316;}
</style>
<path class="st0" d="M8.1,4.9c0-0.6,0.4-1,1-1c0.6,0,1,0.4,1,1c0,4.9,2.8,7.5,6,10c2.9-2.4,5.6-4.8,6-9l-9,0c-0.6,0-1-0.4-1-1
	s0.4-1,1-1l10,0c0.6,0,1,0.4,1,1c0,5.6-3.1,8.6-6.4,11.3c3.3,2.7,6.4,5.7,6.4,11.3c0,0.1,0,0.2,0,0.4c0,0.6-0.4,1-1,1l-10,0
	c-0.6,0-1-0.4-1-1c0-0.6,0.4-1,1-1l9,0c-0.2-4.4-3-6.9-6-9.4c-3.2,2.6-6,5.2-6,10c0,0.6-0.4,1-1,1s-1-0.4-1-1
	c0-5.6,3.1-8.6,6.4-11.3C11.2,13.5,8.1,10.5,8.1,4.9z"/>
</svg>
