<?xml version="1.0" encoding="utf-8"?>
<!-- Generator: Adobe Illustrator 25.1.0, SVG Export Plug-In . SVG Version: 6.00 Build 0)  -->
<svg version="1.1" id="Calque_1" xmlns="http://www.w3.org/2000/svg" xmlns:xlink="http://www.w3.org/1999/xlink" x="0px" y="0px"
	 viewBox="0 0 32 32" style="enable-background:new 0 0 32 32;" xml:space="preserve">
<style type="text/css">
	.st0{fill:#AC7644;}
</style>
<path class="st0" d="M27.6,8.2c0.6,0,1,0.4,1,1c0,0.6-0.4,1-1,1c-4.9,0-7.5,2.8-10,6c2.4,2.9,4.8,5.6,9,6l0-9c0-0.6,0.4-1,1-1
	c0.6,0,1,0.4,1,1l0,10c0,0.6-0.4,1-1,1c-5.6,0-8.6-3.1-11.3-6.4c-2.7,3.3-5.7,6.4-11.3,6.4c-0.1,0-0.2,0-0.3,0c-0.6,0-1-0.4-1-1
	l0-10c0-0.6,0.4-1,1-1s1,0.4,1,1l0,9c4.4-0.2,6.9-3,9.4-6c-2.6-3.2-5.2-6-10-6c-0.6,0-1-0.4-1-1c0-0.6,0.4-1,1-1
	c5.6,0,8.6,3.1,11.3,6.4C19,11.3,22,8.2,27.6,8.2z"/>
</svg>
