<?xml version="1.0" encoding="utf-8"?>
<!-- Generator: Adobe Illustrator 25.1.0, SVG Export Plug-In . SVG Version: 6.00 Build 0)  -->
<svg version="1.1" id="Calque_1" xmlns="http://www.w3.org/2000/svg" xmlns:xlink="http://www.w3.org/1999/xlink" x="0px" y="0px"
	 viewBox="0 0 32 32" style="enable-background:new 0 0 32 32;" xml:space="preserve">
<style type="text/css">
	.st0{fill:#EC8E0E;}
</style>
<path class="st0" d="M14.9,2.4c0.3-0.5,0.9-0.6,1.4-0.4c0.5,0.3,0.6,0.9,0.4,1.4c-2.4,4.2-1.3,7.9,0.2,11.7c3.7-0.6,7.2-1.4,9.7-4.8
	l-7.8-4.5c-0.5-0.3-0.6-0.9-0.4-1.4s0.9-0.6,1.4-0.4l8.7,5c0.5,0.3,0.6,0.9,0.4,1.4c-2.8,4.8-7,5.9-11.2,6.6c1.5,4,2.7,8.2-0.1,13
	c-0.1,0.1-0.1,0.2-0.2,0.3c-0.3,0.5-0.9,0.6-1.4,0.4l-8.7-5c-0.5-0.3-0.6-0.9-0.4-1.4s0.9-0.6,1.4-0.4l7.8,4.5c2-4,0.9-7.5-0.5-11.1
	c-4,0.6-7.8,1.5-10.2,5.7c-0.3,0.5-0.9,0.6-1.4,0.4c-0.5-0.3-0.6-0.9-0.4-1.4c2.8-4.8,7-5.9,11.2-6.6C13.3,11.4,12.1,7.2,14.9,2.4z"
	/>
</svg>
