<?xml version="1.0" encoding="utf-8"?>
<!-- Generator: Adobe Illustrator 25.1.0, SVG Export Plug-In . SVG Version: 6.00 Build 0)  -->
<svg version="1.1" id="Calque_1" xmlns="http://www.w3.org/2000/svg" xmlns:xlink="http://www.w3.org/1999/xlink" x="0px" y="0px"
	 viewBox="0 0 32 32" style="enable-background:new 0 0 32 32;" xml:space="preserve">
<style type="text/css">
	.st0{fill:#DD881C;}
</style>
<path class="st0" d="M2.5,13.9c-0.4-0.4-0.4-1,0-1.4c0.4-0.4,1-0.4,1.4,0c3.4,3.4,7.3,3.3,11.3,2.8c0.4-3.8,0.6-7.4-2.1-10.6
	l-6.4,6.4c-0.4,0.4-1,0.4-1.4,0c-0.4-0.4-0.4-1,0-1.4l7.1-7.1c0.4-0.4,1-0.4,1.4,0c4,4,3.9,8.3,3.5,12.5c4.2-0.4,8.6-0.5,12.6,3.5
	c0.1,0.1,0.1,0.2,0.2,0.2c0.4,0.4,0.4,1,0,1.4L23,27.4c-0.4,0.4-1,0.4-1.4,0c-0.4-0.4-0.4-1,0-1.4l6.4-6.4c-3.3-3-7-2.8-10.9-2.4
	c-0.4,4.1-0.6,7.9,2.8,11.3c0.4,0.4,0.4,1,0,1.4s-1,0.4-1.4,0c-4-4-3.9-8.3-3.5-12.6C10.8,17.8,6.5,17.9,2.5,13.9z"/>
</svg>
