<?xml version="1.0" encoding="utf-8"?>
<!-- Generator: Adobe Illustrator 25.1.0, SVG Export Plug-In . SVG Version: 6.00 Build 0)  -->
<svg version="1.1" id="Calque_1" xmlns="http://www.w3.org/2000/svg" xmlns:xlink="http://www.w3.org/1999/xlink" x="0px" y="0px"
	 viewBox="0 0 32 32" style="enable-background:new 0 0 32 32;" xml:space="preserve">
<style type="text/css">
	.st0{fill:#CC8227;}
</style>
<path class="st0" d="M22.1,3.6c0.5-0.3,1.1-0.1,1.4,0.4s0.1,1.1-0.4,1.4c-4.2,2.4-5,6.2-5.7,10.2c3.5,1.3,7,2.4,10.8,0.7l-4.5-7.8
	c-0.3-0.5-0.1-1.1,0.4-1.4c0.5-0.3,1.1-0.1,1.4,0.4l5,8.7c0.3,0.5,0.1,1.1-0.4,1.4c-4.8,2.8-9,1.6-13,0.1c-0.7,4.2-1.8,8.4-6.6,11.2
	c-0.1,0-0.2,0.1-0.3,0.2c-0.5,0.3-1.1,0.1-1.4-0.4l-5-8.7c-0.3-0.5-0.1-1.1,0.4-1.4s1.1-0.1,1.4,0.4l4.5,7.8
	c3.7-2.4,4.5-6.1,5.1-9.9c-3.8-1.5-7.5-2.6-11.7-0.2c-0.5,0.3-1.1,0.1-1.4-0.4S2,15.2,2.5,14.9c4.8-2.8,9-1.6,13-0.1
	C16.2,10.6,17.2,6.4,22.1,3.6z"/>
</svg>
