<?xml version="1.0" encoding="utf-8"?>
<!-- Generator: Adobe Illustrator 25.1.0, SVG Export Plug-In . SVG Version: 6.00 Build 0)  -->
<svg version="1.1" id="Calque_1" xmlns="http://www.w3.org/2000/svg" xmlns:xlink="http://www.w3.org/1999/xlink" x="0px" y="0px"
	 viewBox="0 0 32 32" style="enable-background:new 0 0 32 32;" xml:space="preserve">
<style type="text/css">
	.st0{fill:#3D4E9D;}
</style>
<path class="st0" d="M24.2,27.7c0,0.6-0.4,1-1,1s-1-0.4-1-1c0-4.9-2.8-7.5-6-10c-2.9,2.4-5.6,4.8-6,9h9c0.6,0,1,0.4,1,1s-0.4,1-1,1
	h-10c-0.6,0-1-0.4-1-1c0-5.6,3.1-8.6,6.4-11.3C11.4,13.7,8.2,10.6,8.2,5c0-0.1,0-0.2,0-0.3c0-0.6,0.4-1,1-1h10c0.6,0,1,0.4,1,1
	s-0.4,1-1,1h-9c0.2,4.5,3,6.9,6,9.4c3.2-2.6,6-5.2,6-10c0-0.6,0.4-1,1-1s1,0.4,1,1c0,5.6-3.1,8.6-6.4,11.3
	C21.1,19.1,24.2,22.1,24.2,27.7z"/>
</svg>
