<?xml version="1.0" encoding="utf-8"?>
<!-- Generator: Adobe Illustrator 25.1.0, SVG Export Plug-In . SVG Version: 6.00 Build 0)  -->
<svg version="1.1" id="Calque_1" xmlns="http://www.w3.org/2000/svg" xmlns:xlink="http://www.w3.org/1999/xlink" x="0px" y="0px"
	 viewBox="0 0 32 32" style="enable-background:new 0 0 32 32;" xml:space="preserve">
<style type="text/css">
	.st0{fill:#8C6A5E;}
</style>
<path class="st0" d="M29.3,11.4c0.5,0.1,0.9,0.7,0.7,1.2c-0.1,0.5-0.7,0.9-1.2,0.7c-4.7-1.3-7.9,0.8-11.2,3.2
	c1.6,3.5,3.2,6.6,7.1,8.1l2.3-8.7c0.1-0.5,0.7-0.9,1.2-0.7c0.5,0.1,0.9,0.7,0.7,1.2l-2.6,9.7c-0.1,0.5-0.7,0.9-1.2,0.7
	c-5.4-1.4-7.5-5.2-9.3-9.1c-3.5,2.5-7.2,4.7-12.6,3.3C3.2,21,3.1,20.9,3,20.9c-0.5-0.1-0.9-0.7-0.7-1.2l2.6-9.7
	C5,9.5,5.5,9.2,6.1,9.4c0.5,0.1,0.9,0.7,0.7,1.2l-2.3,8.7c4.4,0.9,7.5-1.1,10.6-3.4c-1.7-3.7-3.4-7.1-8.1-8.4
	C6.4,7.4,6.1,6.8,6.3,6.3C6.4,5.8,7,5.4,7.5,5.6c5.4,1.4,7.5,5.2,9.3,9.1C20.2,12.2,23.9,10,29.3,11.4z"/>
</svg>
