<?xml version="1.0" encoding="utf-8"?>
<!-- Generator: Adobe Illustrator 25.1.0, SVG Export Plug-In . SVG Version: 6.00 Build 0)  -->
<svg version="1.1" id="Calque_1" xmlns="http://www.w3.org/2000/svg" xmlns:xlink="http://www.w3.org/1999/xlink" x="0px" y="0px"
	 viewBox="0 0 32 32" style="enable-background:new 0 0 32 32;" xml:space="preserve">
<style type="text/css">
	.st0{fill:#7D646D;}
</style>
<path class="st0" d="M30.1,15c0.5,0.3,0.6,0.9,0.4,1.4s-0.9,0.6-1.4,0.4c-4.2-2.4-7.9-1.3-11.7,0.2c0.6,3.7,1.4,7.2,4.8,9.7l4.5-7.8
	c0.3-0.5,0.9-0.6,1.4-0.4s0.6,0.9,0.4,1.4l-5,8.7c-0.3,0.5-0.9,0.6-1.4,0.4c-4.8-2.8-5.9-7-6.6-11.2c-4,1.5-8.2,2.7-13-0.1
	c-0.1-0.1-0.2-0.1-0.3-0.2c-0.5-0.3-0.6-0.9-0.4-1.4l5-8.7C7.1,6.9,7.7,6.7,8.2,7c0.5,0.3,0.6,0.9,0.4,1.4l-4.5,7.8
	c4,2,7.5,0.9,11.1-0.5c-0.6-4-1.5-7.8-5.7-10.2C9.1,5.2,8.9,4.6,9.2,4.1s0.9-0.6,1.4-0.4c4.8,2.8,5.9,7,6.6,11.2
	C21.1,13.4,25.3,12.2,30.1,15z"/>
</svg>
