<?xml version="1.0" encoding="utf-8"?>
<!-- Generator: Adobe Illustrator 25.1.0, SVG Export Plug-In . SVG Version: 6.00 Build 0)  -->
<svg version="1.1" id="Calque_1" xmlns="http://www.w3.org/2000/svg" xmlns:xlink="http://www.w3.org/1999/xlink" x="0px" y="0px"
	 viewBox="0 0 32 32" style="enable-background:new 0 0 32 32;" xml:space="preserve">
<style type="text/css">
	.st0{fill:#4C5395;}
</style>
<path class="st0" d="M21.1,29.4c-0.1,0.5-0.7,0.9-1.2,0.7c-0.5-0.1-0.9-0.7-0.7-1.2c1.3-4.7-0.8-7.9-3.2-11.2
	c-3.5,1.6-6.6,3.2-8.1,7.1l8.7,2.3c0.5,0.1,0.9,0.7,0.7,1.2c-0.1,0.5-0.7,0.9-1.2,0.7l-9.7-2.6c-0.5-0.1-0.9-0.7-0.7-1.2
	c1.4-5.4,5.2-7.5,9.1-9.3c-2.5-3.5-4.7-7.2-3.3-12.6c0.1-0.1,0.1-0.2,0.1-0.3c0.1-0.5,0.7-0.9,1.2-0.7l9.7,2.6
	c0.5,0.1,0.9,0.7,0.7,1.2C23.1,6.7,22.5,7,22,6.9l-8.7-2.3c-0.9,4.4,1.1,7.5,3.4,10.6c3.7-1.7,7.1-3.4,8.4-8.1
	c0.1-0.5,0.7-0.9,1.2-0.7C26.8,6.5,27.1,7,27,7.6c-1.4,5.4-5.2,7.5-9.1,9.3C20.3,20.3,22.6,24,21.1,29.4z"/>
</svg>
