<?xml version="1.0" encoding="utf-8"?>
<!-- Generator: Adobe Illustrator 25.1.0, SVG Export Plug-In . SVG Version: 6.00 Build 0)  -->
<svg version="1.1" id="Calque_1" xmlns="http://www.w3.org/2000/svg" xmlns:xlink="http://www.w3.org/1999/xlink" x="0px" y="0px"
	 viewBox="0 0 32 32" style="enable-background:new 0 0 32 32;" xml:space="preserve">
<style type="text/css">
	.st0{fill:#5C5887;}
</style>
<path class="st0" d="M28.9,22.2c0.3,0.5,0.1,1.1-0.4,1.4s-1.1,0.1-1.4-0.4c-2.4-4.2-6.2-5-10.2-5.7c-1.3,3.5-2.4,7-0.7,10.8l7.8-4.5
	c0.5-0.3,1.1-0.1,1.4,0.4s0.1,1.1-0.4,1.4l-8.7,5c-0.5,0.3-1.1,0.1-1.4-0.4c-2.8-4.8-1.6-9-0.1-13c-4.2-0.7-8.4-1.8-11.2-6.6
	c0-0.1-0.1-0.2-0.2-0.3C3.3,9.8,3.4,9.2,3.9,8.9l8.7-5c0.5-0.3,1.1-0.1,1.4,0.4s0.1,1.1-0.4,1.4l-7.8,4.5c2.4,3.7,6.1,4.5,9.9,5.1
	c1.5-3.8,2.6-7.5,0.2-11.7c-0.3-0.5-0.1-1.1,0.4-1.4s1.1-0.1,1.4,0.4c2.8,4.8,1.6,9,0.1,13C21.9,16.3,26.1,17.3,28.9,22.2z"/>
</svg>
