<?xml version="1.0" encoding="utf-8"?>
<!-- Generator: Adobe Illustrator 25.1.0, SVG Export Plug-In . SVG Version: 6.00 Build 0)  -->
<svg version="1.1" id="Calque_1" xmlns="http://www.w3.org/2000/svg" xmlns:xlink="http://www.w3.org/1999/xlink" x="0px" y="0px"
	 viewBox="0 0 32 32" style="enable-background:new 0 0 32 32;" xml:space="preserve">
<style type="text/css">
	.st0{fill:#7D646D;}
</style>
<path class="st0" d="M10.4,29c-0.5,0.3-1.1,0.1-1.4-0.4s-0.1-1.1,0.4-1.4c4.2-2.4,5-6.2,5.7-10.2c-3.5-1.3-7-2.4-10.8-0.7l4.5,7.8
	c0.3,0.5,0.1,1.1-0.4,1.4S7.3,25.6,7,25.2l-5-8.7c-0.3-0.5-0.1-1.1,0.4-1.4c4.8-2.8,9-1.6,13-0.1c0.7-4.2,1.8-8.4,6.6-11.2
	c0.1,0,0.2-0.1,0.3-0.2c0.5-0.3,1.1-0.1,1.4,0.4l5,8.7c0.3,0.5,0.1,1.1-0.4,1.4s-1.1,0.1-1.4-0.4l-4.5-7.8c-3.7,2.4-4.5,6.1-5.1,9.9
	c3.8,1.5,7.5,2.6,11.7,0.2c0.5-0.3,1.1-0.1,1.4,0.4c0.3,0.5,0.1,1.1-0.4,1.4c-4.8,2.8-9,1.6-13,0.1C16.3,22,15.2,26.2,10.4,29z"/>
</svg>
