<?xml version="1.0" encoding="utf-8"?>
<!-- Generator: Adobe Illustrator 25.1.0, SVG Export Plug-In . SVG Version: 6.00 Build 0)  -->
<svg version="1.1" id="Calque_1" xmlns="http://www.w3.org/2000/svg" xmlns:xlink="http://www.w3.org/1999/xlink" x="0px" y="0px"
	 viewBox="0 0 32 32" style="enable-background:new 0 0 32 32;" xml:space="preserve">
<style type="text/css">
	.st0{fill:#8C6A5E;}
</style>
<path class="st0" d="M7.3,27.1c-0.5,0.1-1.1-0.2-1.2-0.7s0.2-1.1,0.7-1.2c4.7-1.3,6.5-4.7,8.1-8.4c-3.1-2.2-6.1-4.2-10.2-3.5L7,22
	c0.1,0.5-0.2,1.1-0.7,1.2C5.7,23.3,5.2,23,5,22.5l-2.6-9.7c-0.1-0.5,0.2-1.1,0.7-1.2c5.4-1.4,9.1,0.8,12.6,3.3
	c1.8-3.9,3.9-7.7,9.3-9.1c0.1,0,0.2,0,0.3-0.1c0.5-0.1,1.1,0.2,1.2,0.7l2.6,9.7c0.1,0.5-0.2,1.1-0.7,1.2c-0.5,0.1-1.1-0.2-1.2-0.7
	l-2.3-8.7c-4.2,1.4-5.9,4.7-7.5,8.2c3.3,2.4,6.5,4.5,11.2,3.2c0.5-0.1,1.1,0.2,1.2,0.7c0.1,0.5-0.2,1.1-0.7,1.2
	c-5.4,1.4-9.1-0.8-12.6-3.3C14.8,21.8,12.7,25.6,7.3,27.1z"/>
</svg>
