<?xml version="1.0" encoding="utf-8"?>
<!-- Generator: Adobe Illustrator 25.1.0, SVG Export Plug-In . SVG Version: 6.00 Build 0)  -->
<svg version="1.1" id="Calque_1" xmlns="http://www.w3.org/2000/svg" xmlns:xlink="http://www.w3.org/1999/xlink" x="0px" y="0px"
	 viewBox="0 0 32 32" style="enable-background:new 0 0 32 32;" xml:space="preserve">
<style type="text/css">
	.st0{fill:#CC8227;}
</style>
<path class="st0" d="M2.4,17.6c-0.5-0.3-0.6-0.9-0.4-1.4c0.3-0.5,0.9-0.6,1.4-0.4c4.2,2.4,7.9,1.3,11.7-0.2
	c-0.6-3.7-1.4-7.2-4.8-9.7l-4.5,7.8c-0.3,0.5-0.9,0.6-1.4,0.4S3.7,13.2,4,12.7l5-8.7c0.3-0.5,0.9-0.6,1.4-0.4
	c4.8,2.8,5.9,7,6.6,11.2c4-1.5,8.2-2.7,13,0.1c0.1,0.1,0.2,0.1,0.3,0.2c0.5,0.3,0.6,0.9,0.4,1.4l-5,8.7c-0.3,0.5-0.9,0.6-1.4,0.4
	c-0.5-0.3-0.6-0.9-0.4-1.4l4.5-7.8c-4-2-7.5-0.9-11.1,0.5c0.6,4,1.5,7.8,5.7,10.2c0.5,0.3,0.6,0.9,0.4,1.4c-0.3,0.5-0.9,0.6-1.4,0.4
	c-4.8-2.8-5.9-7-6.6-11.2C11.4,19.2,7.2,20.4,2.4,17.6z"/>
</svg>
